<?xml version="1.0" standalone="no"?>
<!DOCTYPE svg PUBLIC "-//W3C//DTD SVG 20010904//EN"
 "http://www.w3.org/TR/2001/REC-SVG-20010904/DTD/svg10.dtd">
<svg version="1.0" xmlns="http://www.w3.org/2000/svg"
 width="1280.000000pt" height="1105.000000pt" viewBox="0 0 1280.000000 1105.000000"
 preserveAspectRatio="xMidYMid meet">
<g transform="translate(0.000000,1105.000000) scale(0.100000,-0.100000)"
fill="#000000" stroke="none">
<path d="M6305 11040 c-16 -5 -61 -16 -100 -24 -289 -66 -486 -307 -535 -658
-29 -206 47 -381 230 -533 l78 -64 6 -278 c3 -153 8 -339 11 -413 3 -74 1
-141 -4 -149 -12 -19 -180 34 -309 99 -223 112 -352 260 -398 456 -16 72 -19
133 -15 349 2 116 -1 154 -18 220 -26 98 -77 208 -135 289 -90 126 -351 351
-476 410 -54 25 -80 31 -157 34 -80 4 -105 1 -175 -22 -46 -14 -128 -51 -183
-81 -109 -60 -156 -84 -465 -230 -858 -407 -1528 -601 -2360 -687 -69 -7 -309
-12 -595 -13 -427 -1 -488 -3 -553 -19 -75 -18 -135 -57 -147 -96 -9 -30 55
-121 127 -181 206 -172 542 -322 870 -389 49 -11 93 -21 96 -24 3 -3 -7 -30
-21 -59 -47 -92 -30 -161 55 -223 115 -85 323 -141 703 -191 l60 -8 -3 -57
c-6 -94 36 -142 178 -206 198 -90 461 -111 685 -57 83 20 82 20 89 -29 21
-135 153 -237 349 -267 85 -13 242 -6 309 14 26 8 49 12 52 9 4 -3 6 -22 6
-42 0 -109 181 -164 673 -205 88 -8 96 -18 43 -59 -53 -40 -161 -181 -200
-260 -55 -111 -77 -209 -78 -334 0 -253 84 -407 287 -526 135 -78 381 -165
620 -217 50 -10 100 -21 113 -24 33 -8 27 -29 -19 -60 -68 -45 -183 -165 -238
-249 -61 -94 -100 -210 -108 -322 -7 -97 12 -166 90 -318 119 -234 304 -414
567 -554 52 -28 125 -63 163 -77 37 -15 67 -33 67 -40 0 -7 -12 -21 -27 -31
-49 -31 -174 -157 -219 -221 -141 -196 -166 -411 -72 -610 82 -176 292 -355
651 -558 59 -33 107 -66 107 -73 0 -8 -18 -35 -41 -60 -100 -114 -181 -267
-219 -416 -27 -108 -43 -289 -30 -356 23 -124 104 -229 253 -329 50 -33 75
-56 70 -64 -3 -7 -31 -46 -62 -87 -67 -91 -134 -216 -155 -289 -45 -154 9
-328 149 -480 30 -32 55 -64 55 -71 0 -6 -16 -59 -36 -117 -87 -254 -47 -389
133 -457 39 -15 76 -33 81 -39 6 -7 12 -79 14 -162 4 -173 14 -202 78 -235 47
-24 66 -25 136 -4 65 19 81 39 94 119 5 32 12 60 15 63 3 3 28 6 56 6 45 1 54
5 84 38 44 47 58 103 53 208 -3 72 -9 94 -36 144 l-31 58 34 83 c75 180 50
291 -86 391 -27 20 -48 41 -47 46 2 5 29 20 61 33 142 57 275 169 334 282 35
64 75 231 75 310 0 94 -33 169 -118 269 l-56 65 41 62 c96 149 141 293 141
457 0 173 -47 314 -146 442 -24 31 -44 62 -44 70 1 27 142 126 303 213 187
100 239 138 325 242 116 138 178 310 169 463 -11 200 -155 438 -333 557 -30
20 -54 41 -54 48 0 6 33 24 73 40 98 38 265 126 356 188 157 108 328 307 397
463 42 95 64 197 64 298 0 196 -60 332 -218 498 -83 86 -83 85 18 108 195 45
453 161 591 265 266 199 348 401 268 660 -41 136 -155 322 -258 420 -36 34
-53 65 -35 65 3 0 105 9 227 20 306 29 400 52 465 113 28 27 32 37 32 85 0 52
1 54 23 48 115 -32 378 -32 492 -1 156 43 229 115 224 218 -2 33 1 52 9 55 7
2 52 -3 100 -11 186 -33 388 -30 537 10 102 27 217 87 264 139 43 46 44 47 38
105 -3 33 -2 61 2 63 4 3 48 10 97 16 290 34 470 77 603 144 135 69 173 154
115 261 -14 26 -23 54 -20 60 2 7 28 18 58 25 29 7 123 37 208 66 85 29 207
69 270 89 213 66 453 205 525 303 19 26 35 53 35 60 0 28 -45 75 -94 98 -122
56 -309 74 -757 74 -282 0 -377 4 -595 25 -748 72 -966 125 -1585 386 -212 89
-522 230 -687 313 -61 31 -118 56 -126 56 -8 0 -61 27 -118 61 -289 171 -453
222 -596 185 -89 -23 -124 -43 -264 -154 -228 -183 -357 -347 -427 -545 l-36
-102 3 -250 c2 -164 -2 -267 -9 -300 -40 -170 -194 -324 -449 -451 -101 -50
-256 -104 -297 -104 l-26 0 6 183 c4 100 10 296 13 436 l7 254 81 81 c91 91
136 162 171 263 105 311 18 661 -207 839 -74 58 -160 96 -276 123 -96 22 -174
25 -227 11z m-555 -979 c45 -93 47 -99 23 -80 -20 17 -73 127 -73 153 0 27 6
19 50 -73z m250 -2361 c11 -6 20 -26 23 -52 5 -35 22 -817 22 -998 l0 -45 -55
-3 c-163 -11 -885 69 -1085 119 -176 45 -296 132 -361 264 -108 219 -12 385
265 456 91 24 211 28 476 15 292 -13 442 14 518 93 35 38 37 44 37 107 l0 67
71 -7 c39 -3 79 -11 89 -16z m972 -67 c-5 -64 12 -91 76 -126 115 -62 284 -81
642 -72 248 6 270 5 344 -14 135 -36 214 -104 253 -217 36 -107 -16 -241 -144
-370 -121 -123 -201 -151 -498 -178 -93 -9 -264 -29 -380 -45 -335 -47 -505
-63 -550 -53 l-40 8 2 165 c4 343 26 904 35 916 5 6 41 17 81 23 40 7 79 13
87 15 8 2 33 2 55 2 l40 -2 -3 -52z m8 -1513 c385 -81 573 -219 596 -437 23
-216 -142 -415 -451 -545 -180 -76 -457 -157 -490 -144 -13 5 -15 21 -10 98 3
51 10 287 15 523 6 237 13 454 16 484 l6 54 106 -6 c59 -3 154 -15 212 -27z
m-933 -2 c9 -11 34 -795 33 -1047 l0 -84 -50 6 c-67 8 -270 77 -360 122 -170
86 -251 152 -349 284 -98 132 -125 195 -118 267 17 169 182 314 440 388 75 22
236 53 352 69 17 2 33 5 36 6 4 0 11 -5 16 -11z m660 -1703 c141 -53 251 -135
315 -234 24 -39 28 -55 28 -119 0 -72 -2 -77 -52 -161 -29 -47 -72 -108 -97
-134 -69 -74 -289 -213 -307 -194 -8 8 13 843 21 857 9 14 17 13 92 -15z
m-605 -161 c15 -379 16 -566 1 -571 -23 -9 -123 65 -219 161 -127 128 -156
207 -117 322 24 72 115 159 222 213 47 23 89 40 95 38 7 -2 13 -63 18 -163z
m1516 -181 c-4 -20 -18 -26 -37 -14 -18 12 -5 31 20 31 14 0 19 -6 17 -17z
m-784 -878 c-6 -16 -34 -21 -34 -7 0 13 11 22 26 22 8 0 11 -6 8 -15z m-1104
-789 c0 -8 -4 -17 -9 -21 -12 -7 -24 12 -16 25 9 15 25 12 25 -4z m1250 -720
c0 -18 -17 -29 -30 -21 -8 5 -7 11 1 21 15 18 29 18 29 0z"/>
</g>
</svg>
